<!-- Eco Battery Card — playful SVG icon
     Size-agnostic, crisp at 24, 48, 128. Duotone w/ gradient bolt.
     Safe to drop in README, HACS repo, or /config/www as /local/eco-battery-icon.svg
-->
<svg xmlns="http://www.w3.org/2000/svg" viewBox="0 0 128 128" width="128" height="128">
  <defs>
    <!-- Fun gradient for the bolt (top = green, bottom = red) -->
    <linearGradient id="ecoBolt" x1="0" x2="0" y1="0" y2="1">
      <stop offset="0%" stop-color="#43a047"/>
      <stop offset="55%" stop-color="#fbc02d"/>
      <stop offset="100%" stop-color="#e53935"/>
    </linearGradient>
    <!-- Soft inner shadow for the battery cavity -->
    <filter id="innerSoft" x="-20%" y="-20%" width="140%" height="140%">
      <feOffset dy="0"/>
      <feGaussianBlur stdDeviation="1.2" result="b"/>
      <feComposite in="SourceGraphic" in2="b" operator="arithmetic" k2="1" k3="-1"/>
    </filter>
  </defs>

  <!-- Background to keep decent contrast when embedded as standalone image -->
  <rect x="0" y="0" width="128" height="128" fill="none"/>

  <!-- Battery body -->
  <g stroke="#e6e6e6" stroke-width="6" stroke-linejoin="round" stroke-linecap="round" fill="none">
    <rect x="18" y="28" width="88" height="56" rx="12"/>
    <!-- Cap -->
    <rect x="104" y="44" width="12" height="24" rx="6" fill="#e6e6e6"/>
  </g>

  <!-- Inner cavity -->
  <rect x="24" y="34" width="76" height="44" rx="8" fill="#1f1f1f" filter="url(#innerSoft)"/>

  <!-- Segments (5 bars) -->
  <g fill="#bdbdbd" opacity="0.9">
    <rect x="28" y="70" width="68" height="4" rx="2"/>
    <rect x="28" y="62" width="68" height="4" rx="2" opacity="0.85"/>
    <rect x="28" y="54" width="68" height="4" rx="2" opacity="0.7"/>
    <rect x="28" y="46" width="68" height="4" rx="2" opacity="0.55"/>
    <rect x="28" y="38" width="68" height="4" rx="2" opacity="0.4"/>
  </g>

  <!-- Bolt overlay -->
  <path d="M68 36 L54 58 h12 l-8 20 22-26 h-12 z" fill="url(#ecoBolt)" stroke="#101010" stroke-width="1.5"/>

  <!-- Tiny accent dots just for flair -->
  <circle cx="30" cy="84" r="2" fill="#43a047"/>
  <circle cx="40" cy="84" r="2" fill="#fbc02d"/>
  <circle cx="50" cy="84" r="2" fill="#e53935"/>
</svg>